<?xml version="1.0" standalone="no"?>
<!DOCTYPE svg PUBLIC "-//W3C//DTD SVG 20010904//EN"
 "http://www.w3.org/TR/2001/REC-SVG-20010904/DTD/svg10.dtd">
<svg version="1.0" xmlns="http://www.w3.org/2000/svg"
 width="613.000000pt" height="613.000000pt" viewBox="0 0 613.000000 613.000000"
 preserveAspectRatio="xMidYMid meet">
<metadata>
Created by potrace 1.14, written by Peter Selinger 2001-2017
</metadata>
<g transform="translate(0.000000,613.000000) scale(0.100000,-0.100000)"
fill="#000000" stroke="none">
<path d="M2915 5944 c-228 -33 -374 -77 -545 -165 -149 -77 -262 -162 -386
-292 -391 -406 -519 -976 -339 -1513 149 -446 507 -798 956 -942 53 -17 138
-39 188 -48 l91 -17 0 -310 0 -311 -79 85 c-266 287 -635 468 -1036 509 -134
14 -304 8 -432 -14 -231 -41 -260 -67 -304 -276 -33 -154 -34 -456 -1 -618 70
-350 226 -631 485 -878 222 -212 479 -346 799 -416 90 -20 132 -23 335 -23
l232 0 3 -136 c3 -132 4 -137 32 -173 33 -44 95 -76 146 -76 51 0 113 32 146
76 28 36 29 41 32 174 l3 136 217 -1 c170 0 239 4 317 19 592 109 1073 525
1259 1086 66 199 80 290 80 520 0 175 -3 220 -23 310 -44 209 -73 235 -304
276 -529 93 -1101 -99 -1468 -495 l-79 -85 0 311 0 310 91 17 c890 163 1433
1082 1148 1941 -168 505 -597 884 -1124 995 -97 20 -365 35 -440 24z m336
-380 c456 -78 818 -429 914 -884 121 -575 -240 -1163 -806 -1315 -397 -106
-807 2 -1095 290 -381 380 -440 972 -142 1425 54 83 182 216 267 279 244 181
561 256 862 205z m-1378 -3009 c506 -114 886 -506 983 -1013 18 -94 24 -301
11 -394 l-8 -57 -57 -8 c-93 -13 -300 -7 -394 11 -517 99 -917 495 -1019 1011
-19 95 -19 425 -1 448 8 9 32 18 55 20 84 9 362 -2 430 -18z m2853 1 c17 -24
28 -171 21 -282 -21 -315 -148 -594 -372 -820 -244 -245 -551 -374 -894 -374
-70 0 -149 3 -174 6 l-46 7 -8 56 c-13 91 -7 299 11 393 75 392 317 718 666
898 114 58 243 102 350 120 41 6 82 13 90 15 8 2 89 3 179 1 141 -3 166 -6
177 -20z"/>
<path d="M2952 5379 c-320 -37 -603 -242 -738 -534 -64 -140 -79 -211 -79
-390 0 -212 27 -311 130 -491 48 -84 216 -254 297 -302 283 -167 608 -187 893
-53 105 49 159 86 247 170 147 138 246 326 279 525 17 106 7 300 -21 395 -108
375 -417 637 -803 680 -105 12 -101 12 -205 0z m242 -379 c164 -42 302 -151
369 -291 48 -101 60 -149 60 -254 1 -159 -52 -287 -167 -400 -116 -115 -237
-165 -398 -165 -158 0 -278 50 -394 165 -114 113 -168 241 -168 400 1 157 54
285 164 395 143 143 342 199 534 150z"/>
</g>
</svg>
